<svg width="96" height="102" viewBox="0 0 96 102" fill="none" xmlns="http://www.w3.org/2000/svg">
<path d="M94.5252 43.1443L49.5223 0.620359C49.0993 0.22086 48.5281 0 47.9299 0C47.3317 0 46.7602 0.225241 46.3374 0.624541L1.46933 43.1443C0.825975 43.752 0.637038 44.6653 0.983493 45.4599C1.33438 46.2543 2.15317 46.7685 3.0618 46.7685H27.8035V99.8758C27.8035 101.048 28.8112 102 30.0528 102H66.0408C67.2824 102 68.2902 101.048 68.2902 99.8758V46.7683H92.9373C93.846 46.7683 94.6648 46.2499 95.0157 45.4555C95.3665 44.6611 95.1685 43.752 94.5252 43.1443Z" fill="#656044"/>
</svg>
