<svg width="102" height="109" viewBox="0 0 102 109" fill="none" xmlns="http://www.w3.org/2000/svg">
<path d="M101.498 60.4248C101.121 59.5758 100.241 59.0219 99.2654 59.0219H72.7925V2.27015C72.7925 1.01706 71.7101 0 70.3765 0H31.7227C30.3891 0 29.3068 1.01706 29.3068 2.27015V59.0221H2.73238C1.75645 59.0221 0.877001 59.5761 0.500127 60.4205C0.128009 61.2695 0.33094 62.2457 1.02195 62.895L49.2183 108.333C49.6725 108.76 50.2862 109 50.9288 109C51.5713 109 52.1851 108.76 52.6392 108.337L100.976 62.8995C101.667 62.2499 101.874 61.2739 101.498 60.4248Z" fill="#656044"/>
</svg>
