<svg width="124" height="77" viewBox="0 0 124 77" fill="none" xmlns="http://www.w3.org/2000/svg">
<path d="M95.6561 0.373779C78.0643 0.373779 66.4223 18.5849 56.1513 34.6556C47.3761 48.3842 39.0895 61.3477 28.9969 61.3477C18.5064 61.3477 12.0654 47.6965 12.0654 37.91C12.0654 28.8364 19.1312 15.6502 30.2053 15.6502C40.9509 15.6502 46.549 26.5392 46.8313 27.0973C48.5722 30.6643 52.2685 31.7867 55.0997 29.6004C57.945 27.4056 58.8464 22.7057 57.1122 19.1032C56.744 18.3403 47.8945 0.374824 30.2053 0.374824C12.4055 0.374824 0 20.1588 0 37.9111C0 56.2225 11.9086 76.6252 28.996 76.6252C44.8437 76.6252 55.3606 60.1751 65.5292 44.2654C74.9359 29.5523 83.8217 15.6512 95.6561 15.6512C102.697 15.6512 107.324 18.6758 109.797 24.89C111.94 30.2828 111.938 36.3852 111.936 38.4995C111.936 39.7118 111.43 45.7923 109.088 51.2676C106.416 57.5049 102.624 60.4082 97.1443 60.4082C86.109 60.4082 80.1469 51.3262 77.9017 47.9055C77.3181 47.0151 76.8979 46.3744 76.3366 45.7662C73.8092 43.0248 69.9989 43.3927 67.8297 46.597C65.738 49.6874 65.9394 54.2817 68.2242 57.0628C68.3332 57.2196 68.4644 57.4254 68.6204 57.6648C71.5466 62.1232 80.444 75.6825 97.1418 75.6825C117.436 75.6825 123.999 50.628 123.999 38.395C124.001 30.6037 122.849 23.7498 120.57 18.0195C117.372 9.97209 110.451 0.373779 95.6561 0.373779Z" fill="#656044"/>
</svg>
